<svg fill="red" xmlns="http://www.w3.org/2000/svg" xmlns:xlink="http://www.w3.org/1999/xlink" version="1.1" x="0px" y="0px" viewBox="0 0 100 125" style="enable-background:new 0 0 100 100;" xml:space="preserve"><path d="M50,5C31.4,5,16.2,20.1,16.2,38.8c0,7.4,2.3,14.4,6.7,20.2l27,36l27-36c4.4-5.9,6.7-12.9,6.7-20.2C83.8,20.1,68.6,5,50,5z   M50,61.2c-4.1,0-8.1-1.2-11.5-3.4l-7.9,2.2l2.2-7.8c-2.4-3.5-3.7-7.6-3.7-11.8c0-11.5,9.4-20.9,20.9-20.9  c11.5,0,20.9,9.4,20.9,20.9C70.9,51.8,61.5,61.2,50,61.2z M50,21.5c-10.4,0-18.8,8.4-18.8,18.8c0,3.9,1.2,7.6,3.4,10.8l0.4,0.6  L33.6,57l5.3-1.5l0.6,0.4c3.1,2.1,6.7,3.2,10.5,3.2c10.4,0,18.8-8.4,18.8-18.8S60.4,21.5,50,21.5z M39.8,43.6  c-1.8,0-3.3-1.5-3.3-3.3c0-1.8,1.5-3.3,3.3-3.3c1.8,0,3.3,1.5,3.3,3.3C43.2,42.1,41.7,43.6,39.8,43.6z M50,43.6  c-1.8,0-3.3-1.5-3.3-3.3c0-1.8,1.5-3.3,3.3-3.3s3.3,1.5,3.3,3.3C53.3,42.1,51.8,43.6,50,43.6z M60.2,43.6c-1.8,0-3.3-1.5-3.3-3.3  c0-1.8,1.5-3.3,3.3-3.3c1.8,0,3.3,1.5,3.3,3.3C63.5,42.1,62,43.6,60.2,43.6z"/></svg>